<svg xmlns="http://www.w3.org/2000/svg" xmlns:xlink="http://www.w3.org/1999/xlink" width="691" height="192" viewBox="0 0 691 192">
  <defs>
    <clipPath id="clip-iPhone_12_12_Pro_49">
      <rect width="691" height="192"/>
    </clipPath>
  </defs>
  <g id="iPhone_12_12_Pro_49" data-name="iPhone 12、12 Pro – 49" clip-path="url(#clip-iPhone_12_12_Pro_49)">
    <path id="排除_1" data-name="排除 1" d="M-14377-1899h-110a10.013,10.013,0,0,1-10-10v-110a10.013,10.013,0,0,1,10-10h110a10.011,10.011,0,0,1,10,10v110A10.011,10.011,0,0,1-14377-1899Zm-107.925-116.457v102.912h38.241a115.735,115.735,0,0,0,29.518-3.411,70.416,70.416,0,0,0,11.843-4.265,54.624,54.624,0,0,0,9.9-5.971,46.633,46.633,0,0,0,7.81-7.511,42.389,42.389,0,0,0,5.58-8.883,46.093,46.093,0,0,0,3.348-10.256,58.435,58.435,0,0,0,1.116-11.628,57.03,57.03,0,0,0-1.123-11.535,44.654,44.654,0,0,0-3.369-10.133,41.03,41.03,0,0,0-5.615-8.731,45.535,45.535,0,0,0-7.862-7.329,55,55,0,0,0-9.993-5.8,73.025,73.025,0,0,0-12.009-4.143,123,123,0,0,0-30.062-3.315Zm35.935,89.265h-21.586V-1964h39.326v-16.074h-39.326V-2002.2h21.586c9.331,0,23.1.561,34.881,5.413,14.507,5.974,21.862,16.847,21.862,32.316,0,15.485-7.355,26.45-21.862,32.59a71.536,71.536,0,0,1-18.691,4.751A126.8,126.8,0,0,1-14448.991-1926.193Z" transform="translate(14526 2064)" fill="#022a4f"/>
    <path id="路径_44" data-name="路径 44" d="M63.442-71.067a1.114,1.114,0,0,1,.089.6,3.993,3.993,0,0,1-.208.894,41.849,41.849,0,0,0-.983,5.3,75.036,75.036,0,0,0-.387,8.816H58.975q-.179-.715-.923-3.1t-1.757-4.855a8.228,8.228,0,0,0-1.847-3.127,5.91,5.91,0,0,0-2.74-1.013,32.469,32.469,0,0,0-4.944-.3H29.011V-35.5H45.393a16.309,16.309,0,0,0,4.915-.506,2.814,2.814,0,0,0,1.817-2.055q.477-1.489.894-3.127t.6-2.234h3.813v22.22H53.852q-.119-.6-.566-2.562T52.3-27.641a6.9,6.9,0,0,0-.953-2.025,3.493,3.493,0,0,0-1.906-1.1,15.9,15.9,0,0,0-4.051-.387H29.011v25.02a9.965,9.965,0,0,0,.566,3.842A3.123,3.123,0,0,0,31.066-.6a10.16,10.16,0,0,0,2.71.655q3.4.417,6.97.834t4.944.536V5.123H7.506V1.43L14,.715A8.495,8.495,0,0,0,18.05-.536a3.934,3.934,0,0,0,1.37-2.71,61.453,61.453,0,0,0,.238-6.7v-57.9a18.292,18.292,0,0,0-4.081.417q-1.817.417-4.8,1.311-.536-.536-2.025-2.234T5.48-72.14l.834-1.311a75.685,75.685,0,0,0,13.82,1.013l37.47-.119a15.9,15.9,0,0,1,4.051.387A2.865,2.865,0,0,1,63.442-71.067ZM88.7-5.957a17.474,17.474,0,0,0,.477,5.063,3.272,3.272,0,0,0,2.681,2.025l3.991.6V5.063H72.676V1.787l1.966-.357A18.6,18.6,0,0,0,77.263.923a3.837,3.837,0,0,0,1.489-.8,3.04,3.04,0,0,0,.864-1.787,17.723,17.723,0,0,0,.208-2.979V-65.11a15.762,15.762,0,0,0-.447-4.289,4.472,4.472,0,0,0-1.519-2.323,12.981,12.981,0,0,0-3.276-1.668l.774-2.562Q82.922-74.4,86.5-73.51t3.574,1.489a3.6,3.6,0,0,1-.357,1.191q-.477,1.608-.745,2.71a12.3,12.3,0,0,0-.268,2.83Zm41.759-40.627q8.34,0,13.85,3.485a20.733,20.733,0,0,1,8.072,9.233,30.6,30.6,0,0,1,2.562,12.6,33.141,33.141,0,0,1-2.889,14.059,22.647,22.647,0,0,1-8.489,9.829A24.272,24.272,0,0,1,130.221,6.2a25.568,25.568,0,0,1-12.51-3.008,21.083,21.083,0,0,1-8.578-8.846,29.775,29.775,0,0,1-3.1-14.118,30.607,30.607,0,0,1,3.157-14.3,22.385,22.385,0,0,1,8.7-9.293A24.569,24.569,0,0,1,130.459-46.584ZM131.174,2.2q7.685,0,10.812-6.374t3.127-15.846q0-10.365-3.306-16.5t-11.586-6.136a12.238,12.238,0,0,0-10.514,5.242q-3.783,5.242-3.783,15.667a56.227,56.227,0,0,0,1.191,12.48,16.111,16.111,0,0,0,4.527,8.31Q124.979,2.2,131.174,2.2Zm79.467,2.859L199.68-29.189,188.48,5.063h-8.638q-1.728-5.838-6.493-21.981t-5.3-17.573l-.477-1.251q-.655-1.906-1.1-2.859a3.864,3.864,0,0,0-1.162-1.489,4.228,4.228,0,0,0-1.847-.894,15.557,15.557,0,0,0-2.74-.3v-3.574h23.947v3.515q-.655.06-2.413.179t-3.187.3q-2.383.238-2.383,2.264a17.889,17.889,0,0,0,.655,3.872q1.191,4.944,4.676,16.769t4.676,15.816l12.867-40.925h5.123L217.193-2.2q1.132-3.932,3.961-13.91t5.212-18.258a19.367,19.367,0,0,0,.894-4.408,1.739,1.739,0,0,0-.6-1.4,3.523,3.523,0,0,0-1.966-.625l-5.48-.536v-3.515h20.969v3.574a7.864,7.864,0,0,0-5.063,1.37,4.545,4.545,0,0,0-1.311,1.668q-.477,1.013-1.43,3.455-2.442,7.387-6.821,20.7T219.278,5.063Zm71.842-77.62q14.178,0,22.7,5.3A29.144,29.144,0,0,1,317.152-53.7a46.187,46.187,0,0,1,3.455,18.02q0,16.144-6.553,25.228T298.626,1.876a50.747,50.747,0,0,1-17.514,3.247H247.276V1.37q5-.655,6.731-1.072a6.565,6.565,0,0,0,3.1-1.668q1.311-1.251,1.311-4.885V-67.91a19.7,19.7,0,0,0-3.515.536q-1.668.417-3.932,1.191-.536-.6-2.234-2.5t-3.068-3.574l.834-1.311a75.685,75.685,0,0,0,13.82,1.013ZM279.206.6A35.976,35.976,0,0,0,294.933-2.74a25.274,25.274,0,0,0,11.2-10.931q4.23-7.6,4.229-19.807A43.89,43.89,0,0,0,307.2-50.1a28.512,28.512,0,0,0-10.246-12.808q-7.089-5-18.348-5H267.828l-.06,54.447a49.907,49.907,0,0,0,.477,7.8,6.416,6.416,0,0,0,2.383,4.289Q273.249.6,279.206.6Zm79.348-21.922a20.192,20.192,0,0,0-4.14.417q-2,.417-4.259,1.132-.477-.536-1.876-2.055T345.27-25.2l.774-1.191a68.033,68.033,0,0,0,12.51.894h12.569a24.154,24.154,0,0,0-1.34-9.412,12.832,12.832,0,0,0-4.5-6.106,12.026,12.026,0,0,0-7.148-2.115A12,12,0,0,0,347.5-37.321q-3.783,5.808-3.783,16.233,0,9.114,2.859,13.91a13.97,13.97,0,0,0,7.059,6.344A27.512,27.512,0,0,0,363.2.715,26.573,26.573,0,0,0,377.14-3.038l.477,3.217a11.184,11.184,0,0,1-2.5,1.549,33.015,33.015,0,0,1-6.7,2.562,35.573,35.573,0,0,1-9.68,1.191q-8.936,0-14.386-3.693A20.35,20.35,0,0,1,336.6-7.685a33.933,33.933,0,0,1-2.293-12.629,32.523,32.523,0,0,1,2.532-12.51,23.734,23.734,0,0,1,8.012-10.187q5.48-4.051,13.761-4.051,8.4,0,13.195,3.425a17.7,17.7,0,0,1,6.553,8.012,24.469,24.469,0,0,1,1.757,8.757,8.2,8.2,0,0,1-.834,4.17,2.958,2.958,0,0,1-2.74,1.37Zm57.426,0a20.192,20.192,0,0,0-4.14.417q-2,.417-4.259,1.132-.477-.536-1.876-2.055T402.7-25.2l.774-1.191a68.033,68.033,0,0,0,12.51.894h12.569a24.154,24.154,0,0,0-1.34-9.412,12.832,12.832,0,0,0-4.5-6.106,12.026,12.026,0,0,0-7.148-2.115,12,12,0,0,0-10.633,5.808q-3.783,5.808-3.783,16.233,0,9.114,2.859,13.91a13.97,13.97,0,0,0,7.059,6.344A27.512,27.512,0,0,0,420.626.715a26.573,26.573,0,0,0,13.939-3.753l.477,3.217a11.184,11.184,0,0,1-2.5,1.549,33.015,33.015,0,0,1-6.7,2.562,35.573,35.573,0,0,1-9.68,1.191q-8.936,0-14.386-3.693a20.35,20.35,0,0,1-7.744-9.472,33.933,33.933,0,0,1-2.293-12.629,32.523,32.523,0,0,1,2.532-12.51,23.734,23.734,0,0,1,8.012-10.187q5.48-4.051,13.761-4.051,8.4,0,13.195,3.425a17.7,17.7,0,0,1,6.553,8.012,24.469,24.469,0,0,1,1.757,8.757,8.2,8.2,0,0,1-.834,4.17,2.958,2.958,0,0,1-2.74,1.37Zm71.306-22.4a5.2,5.2,0,0,1-.477,1.489,30.991,30.991,0,0,0-1.4,4.289,32.021,32.021,0,0,0-.745,6.017l-3.217.06q-.06-.477-.357-2t-.774-3.127a6.022,6.022,0,0,0-1.013-2.2,3.239,3.239,0,0,0-2.5-.715,11.96,11.96,0,0,0-6.612,2.442q-3.574,2.442-6.434,8.042V-4.349a14.878,14.878,0,0,0,.238,3.276A2.9,2.9,0,0,0,466.376.774q.953.179,4.2.477t4.378.417V4.944H446.837V1.728q.894-.179,2.562-.417,1.906-.3,2.889-.536A3.5,3.5,0,0,0,453.807.06a3.293,3.293,0,0,0,.8-1.817,18.723,18.723,0,0,0,.208-3.068V-35.146a13.651,13.651,0,0,0-.536-4.259,5.561,5.561,0,0,0-1.668-2.532,11.028,11.028,0,0,0-3.157-1.728l.715-2.442q5.778,1.132,9.591,2.264t3.813,1.608a7.772,7.772,0,0,1-.477,1.519,8.058,8.058,0,0,0-.477,2.83v4.766q3.932-7.744,8.519-10.335a17.94,17.94,0,0,1,8.816-2.591,16.15,16.15,0,0,1,5.063.745Q487.285-44.559,487.285-43.725Z" transform="translate(173 141)" fill="#022a4f" stroke="#022a4f" stroke-width="1"/>
  </g>
</svg>
