<svg xmlns="http://www.w3.org/2000/svg" xmlns:xlink="http://www.w3.org/1999/xlink" width="469" height="92" viewBox="0 0 469 92">
  <defs>
    <clipPath id="clip-画板_4">
      <rect width="469" height="92"/>
    </clipPath>
  </defs>
  <g id="画板_4" data-name="画板 – 4" clip-path="url(#clip-画板_4)">
    <g id="组_5" data-name="组 5" transform="translate(-13)">
      <g id="组_3" data-name="组 3" transform="translate(25.336 13.136)">
        <path id="路径_5" data-name="路径 5" d="M16.346,45.778V43.667a7.437,7.437,0,0,1,3.972-6.318,21.63,21.63,0,0,1-5.624-3.491,13.186,13.186,0,0,0-4.522,9.809v2.111a9.259,9.259,0,1,0,6.173,0ZM13.259,57.556a3.086,3.086,0,1,1,3.086-3.086A3.09,3.09,0,0,1,13.259,57.556ZM41.037,19.948v1.083a8.62,8.62,0,0,1-4.151,7.284,21.655,21.655,0,0,1,5.627,3.4,14.6,14.6,0,0,0,4.7-10.676V19.951a9.264,9.264,0,1,0-6.173,0ZM44.124,8.173a3.086,3.086,0,1,1-3.086,3.086A3.09,3.09,0,0,1,44.124,8.173ZM47.01,45.716A18.535,18.535,0,0,0,28.692,29.778a12.359,12.359,0,0,1-12.1-9.9,9.288,9.288,0,1,0-6.219.139A18.535,18.535,0,0,0,28.692,35.951a12.359,12.359,0,0,1,12.1,9.9,9.288,9.288,0,1,0,6.219-.139ZM13.259,8.173a3.086,3.086,0,1,1-3.086,3.086A3.09,3.09,0,0,1,13.259,8.173ZM44.124,57.556A3.086,3.086,0,1,1,47.21,54.47,3.09,3.09,0,0,1,44.124,57.556Z" transform="translate(0)" fill="#070707" stroke="#fff" stroke-width="3"/>
      </g>
      <text id="FlowDeer" transform="translate(91 74)" stroke="#fff" stroke-width="2" font-size="80" font-family="Helvetica-Bold, Helvetica" font-weight="700"><tspan x="0" y="0">FlowDeer</tspan></text>
    </g>
  </g>
</svg>
