<svg xmlns="http://www.w3.org/2000/svg" xmlns:xlink="http://www.w3.org/1999/xlink" width="512" height="512" viewBox="0 0 512 512">
  <defs>
    <clipPath id="clip-iPhone_12_12_Pro_50">
      <rect width="512" height="512"/>
    </clipPath>
  </defs>
  <g id="iPhone_12_12_Pro_50" data-name="iPhone 12、12 Pro – 50" clip-path="url(#clip-iPhone_12_12_Pro_50)">
    <path id="排除_1" data-name="排除 1" d="M-14050-1572h-437a10.012,10.012,0,0,1-10-10v-437a10.012,10.012,0,0,1,10-10h437a9.935,9.935,0,0,1,7.07,2.928A9.935,9.935,0,0,1-14040-2019v437a9.935,9.935,0,0,1-2.928,7.07A9.935,9.935,0,0,1-14050-1572Zm-377.917-381.316v305.636h113.575a409.338,409.338,0,0,0,46.717-2.534,288.866,288.866,0,0,0,40.945-7.6,209.12,209.12,0,0,0,35.171-12.668,162.149,162.149,0,0,0,29.4-17.735,138.568,138.568,0,0,0,23.2-22.3,125.818,125.818,0,0,0,16.57-26.381,136.718,136.718,0,0,0,9.941-30.458,173.391,173.391,0,0,0,3.314-34.534,169.367,169.367,0,0,0-3.335-34.259,132.65,132.65,0,0,0-10.006-30.095,121.941,121.941,0,0,0-16.677-25.931,135.254,135.254,0,0,0-23.349-21.767,163.294,163.294,0,0,0-29.675-17.224,216.734,216.734,0,0,0-35.662-12.3,305.277,305.277,0,0,0-41.649-7.382,437.579,437.579,0,0,0-47.636-2.461Zm106.732,265.1h-64.114V-1800.5h116.8v-47.738h-116.8v-65.711h64.114a406.3,406.3,0,0,1,48.074,2.527,256.68,256.68,0,0,1,27.894,4.837,181.7,181.7,0,0,1,27.615,8.712,126.552,126.552,0,0,1,25.2,13.706,94.963,94.963,0,0,1,20.646,19.818,87.816,87.816,0,0,1,7.947,12.551,92.181,92.181,0,0,1,6.007,14.5,105.355,105.355,0,0,1,3.8,16.587,129.492,129.492,0,0,1,1.326,18.814c0,45.989-21.845,78.553-64.927,96.787a182.117,182.117,0,0,1-27.615,9.011,253.974,253.974,0,0,1-27.894,5.1A376.524,376.524,0,0,1-14321.181-1688.221Z" transform="translate(14524.498 2056.502)" fill="#022a4f"/>
  </g>
</svg>
