<svg xmlns="http://www.w3.org/2000/svg" xmlns:xlink="http://www.w3.org/1999/xlink" width="512" height="512" viewBox="0 0 512 512">
  <defs>
    <filter id="路径_1" x="22.293" y="4.274" width="473.414" height="509.453" filterUnits="userSpaceOnUse">
      <feOffset dx="3" dy="3" input="SourceAlpha"/>
      <feGaussianBlur stdDeviation="3" result="blur"/>
      <feFlood flood-opacity="0.161"/>
      <feComposite operator="in" in2="blur"/>
      <feComposite in="SourceGraphic"/>
    </filter>
    <clipPath id="clip-iPhone_12_12_Pro_24">
      <rect width="512" height="512"/>
    </clipPath>
  </defs>
  <g id="iPhone_12_12_Pro_24" data-name="iPhone 12、12 Pro – 24" clip-path="url(#clip-iPhone_12_12_Pro_24)">
    <g transform="matrix(1, 0, 0, 1, 0, 0)" filter="url(#路径_1)">
      <path id="路径_1-2" data-name="路径 1" d="M497.414,379.117V186.384a36.118,36.118,0,0,0-17.935-31.163L307.919,55.378a54.109,54.109,0,0,0-54.448,0L81.935,155.221A36.118,36.118,0,0,0,64,186.384V379.117A36.118,36.118,0,0,0,81.935,410.3l171.56,99.843a54.177,54.177,0,0,0,54.448,0L479.5,410.3A36.118,36.118,0,0,0,497.414,379.117Z" transform="translate(-24.71 -26.76)" fill="#54acf7" stroke="#a5a5a5" stroke-linecap="round" stroke-linejoin="round" stroke-width="22"/>
    </g>
    <g id="组_1" data-name="组 1" transform="translate(-24.707 -27.726)">
      <g id="组_1-2" data-name="组 1" transform="translate(64 49)">
        <path id="减去_1" data-name="减去 1" d="M-5372.879-515.186V-707.92a36.118,36.118,0,0,0-17.935-31.163l-171.56-99.843a54.109,54.109,0,0,0-54.448,0l-171.537,99.843a36.118,36.118,0,0,0-17.935,31.163v192.734A36.118,36.118,0,0,0-5788.358-484l171.56,99.843a54.176,54.176,0,0,0,54.447,0L-5390.792-484A36.117,36.117,0,0,0-5372.879-515.186Z" transform="translate(5806.293 846.274)" fill="#54acf7" stroke="#fff" stroke-linecap="round" stroke-linejoin="round" stroke-width="20"/>
      </g>
    </g>
    <path id="交叉_1" data-name="交叉 1" d="M-6171.3-393.13l-85.371-49.722c26.088-12.746,58.944-17.374,86.233-17.374,56.741,0,82.487-27.963,82.487-60.029,0-9.639-1.238-17.655,1.431-28.534-47.775.667-65.7-25.959-65.7-25.959,5.341-15.65,14.209-11.261,30.9-13.169a90.734,90.734,0,0,1,49.587,16.223c6.676-5.44,16.212-9.924,25.271-13.36l81.534,42.278H-5980l-1.62,7.634s8.105,3.531,14.875,3.245l-6.961,15.747h-71.807l23.364,7.348a454.064,454.064,0,0,1-3.814,53.73q-.221,2.881-.588,6.071l-95.929,55.872a48.521,48.521,0,0,1-24.408,6.582A48.522,48.522,0,0,1-6171.3-393.13ZM-5964.932-542.777Zm-132.837-56.641c-27.465-10.212-54.355-3.245-78.2-1.05-17.927,1.622-34.329.859-48.539-8.112-14.017-8.78-26.319-25.578-35.284-57.548l15.354-4.294c7.438,26.531,16.688,41.037,28.321,48.384,10.491,6.27,24.7,6.442,39.767,5.63a43.835,43.835,0,0,1-12.3-6.2c-8.487-6.2-15.735-16.51-21.171-35.215l15.258-4.485c4.1,14.124,8.868,22.235,15.257,26.913,6.39,4.58,14.113,5.726,23.268,6.679,17.164,1.91,38.621,2.674,65.417,15.079a92.664,92.664,0,0,1,10.967,4.964,31.338,31.338,0,0,0-1.622-2.958c-4.577-7.158-13.541-14.7-30.133-20.8l5.341-14.888c26.986,9.733,37.666,23.572,41.958,34.547,4.959,12.5,1.906,22.285,1.906,22.285-3.814,1.24-7.629,2.958-12.015,4.294A153.945,153.945,0,0,0-6097.769-599.417Zm48.824.762c-.476-7.672-1.431-21.93-8.3-29.967a55.192,55.192,0,0,1,12.493,8.5,28.4,28.4,0,0,0-10.013-22.046l10.4-11.929c26.986,23.477,10.2,57.07,10.2,57.07Zm-105.945-41.9a53.272,53.272,0,0,1-4.2-26.435l15.83,1.146c-.953,12.98,3.624,21.76,8.773,27.486C-6141.159-639.5-6147.547-639.635-6154.89-640.551Z" transform="translate(6389.129 877.274)" fill="#fff"/>
    <g id="组_10" data-name="组 10" transform="translate(63.862)" opacity="0.996" style="isolation: isolate">
      <path id="路径_13" data-name="路径 13" d="M0,0H192.139V192.139H0Z" fill="none"/>
      <path id="路径_17" data-name="路径 17" d="M42.023,32.012A16.012,16.012,0,1,0,26.012,48.023,16.012,16.012,0,0,0,42.023,32.012Z" transform="translate(70.058 112.092)" fill="none" stroke="#fff" stroke-linecap="round" stroke-linejoin="round" stroke-width="12"/>
      <path id="路径_18" data-name="路径 18" d="M12,8V58.087" transform="translate(84.069 70.005)" fill="#fff" stroke="#fff" stroke-linecap="round" stroke-linejoin="round" stroke-width="12"/>
    </g>
    <g id="组_25" data-name="组 25" transform="translate(159.931 -23)" opacity="0.996" style="isolation: isolate">
      <path id="路径_13-2" data-name="路径 13" d="M0,0H192.139V192.139H0Z" fill="none"/>
      <path id="路径_17-2" data-name="路径 17" d="M42.023,32.012A16.012,16.012,0,1,0,26.012,48.023,16.012,16.012,0,0,0,42.023,32.012Z" transform="translate(70.058 112.092)" fill="none" stroke="#fff" stroke-linecap="round" stroke-linejoin="round" stroke-width="12"/>
      <path id="路径_18-2" data-name="路径 18" d="M12,8V93.7" transform="translate(84.069 34.394)" fill="#fff" stroke="#fff" stroke-linecap="round" stroke-linejoin="round" stroke-width="12"/>
    </g>
    <g id="组_26" data-name="组 26" transform="translate(256 21.274)" opacity="0.996" style="isolation: isolate">
      <path id="路径_13-3" data-name="路径 13" d="M0,0H192.139V192.139H0Z" fill="none"/>
      <path id="路径_17-3" data-name="路径 17" d="M42.023,32.012A16.012,16.012,0,1,0,26.012,48.023,16.012,16.012,0,0,0,42.023,32.012Z" transform="translate(70.058 112.092)" fill="none" stroke="#fff" stroke-linecap="round" stroke-linejoin="round" stroke-width="12"/>
      <path id="路径_18-3" data-name="路径 18" d="M12,8V83.506" transform="translate(84.069 44.587)" fill="#fff" stroke="#fff" stroke-linecap="round" stroke-linejoin="round" stroke-width="12"/>
    </g>
  </g>
</svg>
